<svg width="1200" height="720" viewBox="0 0 1200 720" fill="none" xmlns="http://www.w3.org/2000/svg">
  <rect width="1200" height="720" fill="#07131D"/>
  <circle cx="1024" cy="162" r="190" fill="#38BDF8" fill-opacity="0.2"/>
  <circle cx="176" cy="582" r="216" fill="#10E7B3" fill-opacity="0.16"/>
  <rect x="86" y="92" width="1028" height="536" rx="38" fill="#0F172A" stroke="#1F334A" stroke-width="4"/>
  <rect x="132" y="138" width="470" height="444" rx="30" fill="#0C1627"/>
  <path d="M216 222C276 170 346 154 418 166C488 178 534 228 556 294C576 352 570 418 532 476C492 534 430 564 356 556C286 550 228 516 194 460C156 402 154 304 216 222Z" fill="#11253A" stroke="#1E4259" stroke-width="4"/>
  <path d="M282 356H360V278H430V356H508V426H430V504H360V426H282V356Z" fill="#10E7B3"/>
  <circle cx="486" cy="250" r="18" fill="#F87171"/>
  <path d="M486 214V194" stroke="#F87171" stroke-width="8" stroke-linecap="round"/>
  <path d="M470 228 454 212" stroke="#F87171" stroke-width="8" stroke-linecap="round"/>
  <rect x="660" y="184" width="314" height="30" rx="15" fill="#F8FAFC"/>
  <rect x="660" y="238" width="214" height="18" rx="9" fill="#64748B"/>
  <rect x="660" y="284" width="306" height="18" rx="9" fill="#64748B"/>
  <rect x="660" y="330" width="264" height="18" rx="9" fill="#64748B"/>
  <rect x="660" y="390" width="348" height="136" rx="28" fill="#0B1220" stroke="#1E4259" stroke-width="3"/>
  <path d="M716 470C764 392 832 370 890 388C944 404 982 450 1000 508" stroke="#38BDF8" stroke-width="10" stroke-linecap="round"/>
  <circle cx="716" cy="470" r="12" fill="#10E7B3"/>
  <circle cx="810" cy="416" r="12" fill="#10E7B3"/>
  <circle cx="900" cy="430" r="12" fill="#10E7B3"/>
  <circle cx="1000" cy="508" r="12" fill="#10E7B3"/>
  <text x="152" y="662" fill="#F8FAFC" font-family="Arial, sans-serif" font-size="58" font-weight="700">MediConnect</text>
</svg>
