<svg width="1200" height="720" viewBox="0 0 1200 720" fill="none" xmlns="http://www.w3.org/2000/svg">
  <rect width="1200" height="720" fill="#0A1020"/>
  <circle cx="1018" cy="126" r="184" fill="#A855F7" fill-opacity="0.18"/>
  <circle cx="188" cy="600" r="228" fill="#10E7B3" fill-opacity="0.14"/>
  <rect x="82" y="88" width="1036" height="544" rx="38" fill="#111827" stroke="#29364A" stroke-width="4"/>
  <rect x="122" y="132" width="286" height="456" rx="28" fill="#0F172A"/>
  <rect x="456" y="132" width="286" height="456" rx="28" fill="#0F172A"/>
  <rect x="790" y="132" width="286" height="456" rx="28" fill="#0F172A"/>
  <rect x="152" y="168" width="146" height="24" rx="12" fill="#38BDF8"/>
  <rect x="486" y="168" width="124" height="24" rx="12" fill="#A855F7"/>
  <rect x="820" y="168" width="134" height="24" rx="12" fill="#10E7B3"/>
  <rect x="152" y="226" width="226" height="92" rx="20" fill="#172337" stroke="#314158" stroke-width="2"/>
  <rect x="152" y="340" width="226" height="120" rx="20" fill="#172337" stroke="#314158" stroke-width="2"/>
  <rect x="152" y="482" width="226" height="72" rx="20" fill="#172337" stroke="#314158" stroke-width="2"/>
  <rect x="486" y="226" width="226" height="108" rx="20" fill="#172337" stroke="#314158" stroke-width="2"/>
  <rect x="486" y="356" width="226" height="86" rx="20" fill="#172337" stroke="#314158" stroke-width="2"/>
  <rect x="486" y="464" width="226" height="90" rx="20" fill="#172337" stroke="#314158" stroke-width="2"/>
  <rect x="820" y="226" width="226" height="132" rx="20" fill="#172337" stroke="#314158" stroke-width="2"/>
  <rect x="820" y="382" width="226" height="76" rx="20" fill="#172337" stroke="#314158" stroke-width="2"/>
  <rect x="820" y="480" width="226" height="74" rx="20" fill="#172337" stroke="#314158" stroke-width="2"/>
  <circle cx="344" cy="532" r="10" fill="#10E7B3"/>
  <circle cx="676" cy="514" r="10" fill="#A855F7"/>
  <circle cx="1010" cy="518" r="10" fill="#38BDF8"/>
  <text x="150" y="662" fill="#F8FAFC" font-family="Arial, sans-serif" font-size="58" font-weight="700">TaskFlow</text>
</svg>
